<svg xmlns="http://www.w3.org/2000/svg" viewBox="0 0 64 64" width="64" height="64" role="img" aria-label="CodeFactory [cF]">
  <title>CodeFactory [cF]</title>
  <!-- Light-mode navbar logo: transparent background, GitHub-light glyph colors
       (muted-gray brackets, blue "cF"). The dark-mode variant is logo-dark.svg,
       wired via the navbar logo's srcDark. [cF] are vector paths (Consolas Bold)
       so they render identically at any size. -->
  <path fill="#57606a" d="M11.43 45.59L3.72 45.59L3.72 18.41L11.43 18.41L11.43 21.2L7.02 21.2L7.02 42.8L11.43 42.8 M60.28 45.59L52.6 45.59L52.6 42.8L56.98 42.8L56.98 21.2L52.6 21.2L52.6 18.41L60.28 18.41Z"/>
  <path fill="#0969da" d="M29.82 36.02L29.82 39.2Q28.77 39.62 27.64 39.83Q26.51 40.03 25.28 40.03Q23.51 40.03 22.1 39.55Q20.7 39.07 19.72 38.12Q18.74 37.16 18.22 35.76Q17.7 34.35 17.7 32.51Q17.7 30.72 18.26 29.27Q18.82 27.82 19.85 26.79Q20.87 25.77 22.32 25.21Q23.76 24.65 25.53 24.65Q26.98 24.65 27.97 24.81Q28.96 24.96 29.75 25.2L29.75 28.67Q28.84 28.21 27.78 27.96Q26.72 27.72 25.77 27.72Q24.77 27.72 23.98 28.05Q23.19 28.39 22.65 28.99Q22.1 29.59 21.82 30.45Q21.53 31.3 21.53 32.33Q21.53 33.4 21.84 34.25Q22.15 35.1 22.71 35.69Q23.28 36.28 24.07 36.6Q24.86 36.91 25.83 36.91Q26.29 36.91 26.81 36.85Q27.33 36.78 27.85 36.66Q28.37 36.53 28.88 36.37Q29.39 36.21 29.82 36.02 M46.25 23.67L38.6 23.67L38.6 28.98L45.84 28.98L45.84 31.93L38.6 31.93L38.6 39.77L34.94 39.77L34.94 20.63L46.25 20.63Z"/>
</svg>
